<?xml version="1.0" encoding="UTF-8"?>
<svg version="1.1" xmlns="http://www.w3.org/2000/svg" width="128" height="128">
<path d="M0 0 C9.2885078 6.04644574 16.30704248 13.66242586 19.23828125 24.45703125 C20.46093552 35.52420687 20.17694383 46.15910374 13.109375 55.171875 C9.751619 59.02748609 6.42246347 62.49957518 2.23828125 65.45703125 C2.39683594 66.14152344 2.55539063 66.82601562 2.71875 67.53125 C4.06548442 75.11549122 4.75379186 83.90445141 0.640625 90.7109375 C-3.28204107 95.59514845 -7.71742824 99.57497672 -13.76171875 101.45703125 C-16.65625 101.65234375 -16.65625 101.65234375 -19.57421875 101.58203125 C-20.55003906 101.56398438 -21.52585938 101.5459375 -22.53125 101.52734375 C-23.26730469 101.50414062 -24.00335938 101.4809375 -24.76171875 101.45703125 C-24.76171875 100.13703125 -24.76171875 98.81703125 -24.76171875 97.45703125 C-27.40171875 97.45703125 -30.04171875 97.45703125 -32.76171875 97.45703125 C-32.76171875 98.77703125 -32.76171875 100.09703125 -32.76171875 101.45703125 C-35.40171875 101.45703125 -38.04171875 101.45703125 -40.76171875 101.45703125 C-40.76171875 100.13703125 -40.76171875 98.81703125 -40.76171875 97.45703125 C-43.40171875 97.45703125 -46.04171875 97.45703125 -48.76171875 97.45703125 C-48.76171875 98.77703125 -48.76171875 100.09703125 -48.76171875 101.45703125 C-52.40692673 101.63334666 -56.05102103 101.73854479 -59.69921875 101.83203125 C-60.72080078 101.88230469 -61.74238281 101.93257813 -62.79492188 101.984375 C-70.38738671 102.12991746 -75.05591571 100.51868079 -80.76171875 95.45703125 C-85.34629374 90.08972394 -85.4880224 84.86566684 -85.2734375 77.91015625 C-84.38004063 71.88143232 -81.70653874 67.7370923 -76.91015625 64.0234375 C-74.08465508 62.28605487 -72.09959895 61.45703125 -68.76171875 61.45703125 C-68.72046875 60.48765625 -68.67921875 59.51828125 -68.63671875 58.51953125 C-67.87284318 53.35029111 -65.15081407 49.34580088 -61.76171875 45.45703125 C-60.34696918 44.54570534 -58.90889764 43.66950889 -57.44921875 42.83203125 C-55.29368119 41.51634734 -55.29368119 41.51634734 -53.76171875 39.45703125 C-53.09605815 35.67466836 -53.00861946 32.04850257 -52.93359375 28.2109375 C-52.4677595 18.03669391 -47.03660675 11.20457976 -39.76171875 4.45703125 C-29.10850191 -3.79872844 -12.3565375 -6.03955115 0 0 Z " fill="#1B1B1A" transform="translate(84.76171875,26.54296875)"/>
<path d="M0 0 C4.46341087 3.02306065 7.39332313 7.3440319 9.08203125 12.41015625 C11.24543372 13.43934833 11.24543372 13.43934833 13.83203125 14.22265625 C18.89119393 16.10446211 21.12371808 17.92497176 24.08203125 22.41015625 C25.74229586 27.39095008 25.6810655 31.71289254 23.95703125 36.59765625 C21.13502378 40.83066746 18.00474133 43.76925289 13.08203125 45.41015625 C11.68763461 45.47681001 10.2903325 45.49553824 8.89453125 45.47265625 C7.63640625 45.45203125 6.37828125 45.43140625 5.08203125 45.41015625 C5.08203125 46.73015625 5.08203125 48.05015625 5.08203125 49.41015625 C2.44203125 49.41015625 -0.19796875 49.41015625 -2.91796875 49.41015625 C-2.91796875 50.73015625 -2.91796875 52.05015625 -2.91796875 53.41015625 C-5.55796875 53.41015625 -8.19796875 53.41015625 -10.91796875 53.41015625 C-10.91796875 52.09015625 -10.91796875 50.77015625 -10.91796875 49.41015625 C-13.55796875 49.41015625 -16.19796875 49.41015625 -18.91796875 49.41015625 C-18.91796875 48.09015625 -18.91796875 46.77015625 -18.91796875 45.41015625 C-19.48717041 45.44157715 -20.05637207 45.47299805 -20.64282227 45.50537109 C-23.25495665 45.63111007 -25.86645369 45.70843463 -28.48046875 45.78515625 C-29.37572266 45.83542969 -30.27097656 45.88570312 -31.19335938 45.9375 C-37.15943709 46.06862259 -40.30851622 45.14836621 -44.65600586 41.00244141 C-46.6105644 38.53627178 -46.94030674 36.24421687 -47.35546875 33.16015625 C-46.84672862 28.79952657 -45.79167884 27.05940923 -42.8515625 23.921875 C-39.57777567 21.36236894 -35.91981604 20.34392062 -31.91796875 19.41015625 C-31.84320313 18.78109375 -31.7684375 18.15203125 -31.69140625 17.50390625 C-30.55051389 10.07692071 -28.21050076 4.60922221 -22.0625 0.02734375 C-14.75228391 -4.14575366 -7.43654051 -3.63361612 0 0 Z " fill="#C7F6F8" transform="translate(54.91796875,74.58984375)"/>
<path d="M0 0 C7.17040129 3.99815569 12.74957144 9.32285004 15.25 17.30859375 C16.92429189 25.69500221 15.82589584 33.02542043 11.6875 40.5 C8.78020474 44.72951722 5.52230428 48.51649055 0.6875 50.5 C-4.21820448 50.5 -8.56341875 47.45813584 -12.3125 44.5 C-13.70962274 42.54402816 -15.05029907 40.54563599 -16.3125 38.5 C-22.76697133 32.04552867 -31.49407928 30.06893037 -40.3125 29.5 C-41.02314452 20.04447987 -39.02993075 13.57509734 -33.0625 6.1875 C-24.43099455 -3.15089599 -11.45247673 -5.32237269 0 0 Z " fill="#EFAE34" transform="translate(80.3125,34.5)"/>
<path d="M0 0 C3.68069887 1.53643852 5.98775204 3.78150945 8.75 6.625 C9.54921875 7.44226563 10.3484375 8.25953125 11.171875 9.1015625 C11.77515625 9.72804688 12.3784375 10.35453125 13 11 C11.02 13.31 9.04 15.62 7 18 C2.81814579 14.47412292 -1.19095875 10.92446674 -5 7 C-3.70700306 4.11562221 -2.34058637 2.12780579 0 0 Z " fill="#191919" transform="translate(101,88)"/>
<path d="M0 0 C2.31 1.98 4.62 3.96 7 6 C3.47412292 10.18185421 -0.07553326 14.19095875 -4 18 C-6.88437779 16.70700306 -8.87219421 15.34058637 -11 13 C-9.46356148 9.31930113 -7.21849055 7.01224796 -4.375 4.25 C-3.55773437 3.45078125 -2.74046875 2.6515625 -1.8984375 1.828125 C-0.95871094 0.92320313 -0.95871094 0.92320313 0 0 Z " fill="#191919" transform="translate(107,14)"/>
<path d="M0 0 C4.18185421 3.52587708 8.19095875 7.07553326 12 11 C10.70700306 13.88437779 9.34058637 15.87219421 7 18 C3.31930113 16.46356148 1.01224796 14.21849055 -1.75 11.375 C-2.54921875 10.55773438 -3.3484375 9.74046875 -4.171875 8.8984375 C-4.77515625 8.27195312 -5.3784375 7.64546875 -6 7 C-4.02 4.69 -2.04 2.38 0 0 Z " fill="#191919" transform="translate(28,14)"/>
<path d="M0 0 C5.28 0 10.56 0 16 0 C16 2.64 16 5.28 16 8 C10.72 8 5.44 8 0 8 C0 5.36 0 2.72 0 0 Z " fill="#1A1A1A" transform="translate(112,56)"/>
<path d="M0 0 C5.28 0 10.56 0 16 0 C16 2.64 16 5.28 16 8 C10.72 8 5.44 8 0 8 C0 5.36 0 2.72 0 0 Z " fill="#1A1A1A" transform="translate(8,56)"/>
<path d="M0 0 C2.64 0 5.28 0 8 0 C8 5.28 8 10.56 8 16 C5.36 16 2.72 16 0 16 C0 10.72 0 5.44 0 0 Z " fill="#1A1A1A" transform="translate(64,0)"/>
<path d="M0 0 C2.64 0 5.28 0 8 0 C8 2.64 8 5.28 8 8 C5.36 8 2.72 8 0 8 C0 5.36 0 2.72 0 0 Z " fill="#1A1A1A" transform="translate(44,120)"/>
</svg>
